<?xml version="1.0" encoding="utf-8"?>
<!-- Generator: Adobe Illustrator 23.1.1, SVG Export Plug-In . SVG Version: 6.00 Build 0)  -->
<svg version="1.1" id="Layer_1" xmlns="http://www.w3.org/2000/svg" xmlns:xlink="http://www.w3.org/1999/xlink" x="0px" y="0px"
	 viewBox="0 0 8.7 16" style="enable-background:new 0 0 8.7 16;" xml:space="preserve">
<g>
	<path d="M7.7,5.3C7.4,5.3,7.2,5.2,7,5L4.3,2.4L1.6,5.1c-0.4,0.4-1,0.4-1.3,0c-0.4-0.4-0.4-1,0-1.3l3.4-3.5c0.4-0.4,1-0.4,1.3,0
		l3.4,3.4c0.4,0.4,0.4,1,0,1.3C8.2,5.3,8,5.3,7.7,5.3z"/>
	<path d="M4.3,16c-0.3,0-0.5-0.1-0.7-0.3l-3.4-3.4c-0.4-0.4-0.4-1,0-1.3c0.4-0.4,1-0.4,1.3,0l2.7,2.7L7,11c0.4-0.4,1-0.4,1.3,0
		c0.4,0.4,0.4,1,0,1.3L5,15.7C4.8,15.9,4.6,16,4.3,16z"/>
</g>
</svg>
