<?xml version="1.0" encoding="utf-8"?>
<!-- Generator: Adobe Illustrator 23.1.1, SVG Export Plug-In . SVG Version: 6.00 Build 0)  -->
<svg version="1.1" id="Layer_1" xmlns="http://www.w3.org/2000/svg" xmlns:xlink="http://www.w3.org/1999/xlink" x="0px" y="0px"
	 viewBox="0 0 20 20" style="enable-background:new 0 0 20 20;" xml:space="preserve">
<g id="copy_3_">
	<g>
		<path d="M15.8,20H7.5C6.1,20,5,18.9,5,17.5V5.8c0-1.4,1.1-2.5,2.5-2.5h8.3c1.4,0,2.5,1.1,2.5,2.5v11.7C18.3,18.9,17.2,20,15.8,20z
			 M7.5,5C7,5,6.7,5.4,6.7,5.8v11.7c0,0.5,0.4,0.8,0.8,0.8h8.3c0.5,0,0.8-0.4,0.8-0.8V5.8c0-0.5-0.4-0.8-0.8-0.8H7.5z"/>
		<path d="M4.2,15c-0.5,0-0.8-0.4-0.8-0.8V2.5c0-0.5,0.4-0.8,0.8-0.8h8.3c0.5,0,0.8,0.4,0.8,0.8v0.8H15V2.5C15,1.1,13.9,0,12.5,0
			H4.2C2.8,0,1.7,1.1,1.7,2.5v11.7c0,1.4,1.1,2.5,2.5,2.5H5V15H4.2z"/>
	</g>
</g>
</svg>
