<?xml version="1.0" encoding="utf-8"?>
<!-- Generator: Adobe Illustrator 23.1.1, SVG Export Plug-In . SVG Version: 6.00 Build 0)  -->
<svg version="1.1" id="Layer_1" xmlns="http://www.w3.org/2000/svg" xmlns:xlink="http://www.w3.org/1999/xlink" x="0px" y="0px"
	 viewBox="0 0 20 20" style="enable-background:new 0 0 20 20;" xml:space="preserve">
<path d="M12.8,0H7.2C5.9,0,4.9,1,4.9,2.2v0.2C4.9,2.8,5.2,3,5.6,3H7l0,3.6l0,0C6.1,7.1,5.3,7.7,4.7,8.5c-0.6,0.9-1,2-1,3.2v1
	c0,0.3,0.3,0.6,0.6,0.6l4.2,0v3.1c0,1.2,0.3,2.3,0.9,3.3C9.6,19.9,9.8,20,10,20c0.2,0,0.4-0.1,0.5-0.3c0.6-1,0.9-2.2,0.9-3.3l0-3.1
	h4.2c0.3,0,0.6-0.3,0.6-0.6v-1c0-1.1-0.3-2.2-1-3.2c-0.6-0.8-1.3-1.5-2.2-1.9V3h1.4l0,0c0,0,0,0,0,0C14.7,3,15,2.8,15,2.4V2.2
	c0,0,0-0.1,0-0.1C14.9,1,14,0,12.8,0z"/>
</svg>
