<?xml version="1.0" encoding="utf-8"?>
<!-- Generator: Adobe Illustrator 23.1.1, SVG Export Plug-In . SVG Version: 6.00 Build 0)  -->
<svg version="1.1" id="Layer_1" xmlns="http://www.w3.org/2000/svg" xmlns:xlink="http://www.w3.org/1999/xlink" x="0px" y="0px"
	 viewBox="0 0 20 20" style="enable-background:new 0 0 20 20;" xml:space="preserve">
<path d="M17.6,11.7c-0.4-0.4-1-0.4-1.4,0s-0.4,1,0,1.4l0.4,0.4h-2.4c-0.7,0-1.4-0.4-1.7-1L11.1,10l1.4-2.5c0.4-0.6,1-1,1.7-1h2.4
	l-0.4,0.4c-0.4,0.4-0.4,1,0,1.4c0.2,0.2,0.4,0.3,0.7,0.3s0.5-0.1,0.7-0.3l2.1-2.1c0.4-0.4,0.4-1,0-1.4l-2.1-2.1
	c-0.4-0.4-1-0.4-1.4,0s-0.4,1,0,1.4l0.4,0.4h-2.4c-1.4,0-2.8,0.8-3.5,2.1L10,7.9L9.2,6.6c-0.7-1.3-2-2.1-3.5-2.1H1c-0.6,0-1,0.4-1,1
	s0.4,1,1,1h4.7c0.7,0,1.4,0.4,1.7,1L8.8,10l-1.4,2.5c-0.4,0.6-1,1-1.7,1H1c-0.6,0-1,0.4-1,1c0,0.6,0.4,1,1,1h4.7
	c1.4,0,2.8-0.8,3.5-2.1l0.8-1.4l0.8,1.4c0.7,1.3,2,2.1,3.5,2.1h2.4l-0.4,0.4c-0.4,0.4-0.4,1,0,1.4c0.2,0.2,0.4,0.3,0.7,0.3
	s0.5-0.1,0.7-0.3l2.1-2.1c0.4-0.4,0.4-1,0-1.4L17.6,11.7z"/>
</svg>
