<?xml version="1.0" encoding="utf-8"?>
<!-- Generator: Adobe Illustrator 23.1.1, SVG Export Plug-In . SVG Version: 6.00 Build 0)  -->
<svg version="1.1" id="Layer_1" xmlns="http://www.w3.org/2000/svg" xmlns:xlink="http://www.w3.org/1999/xlink" x="0px" y="0px"
	 viewBox="0 0 20 20" style="enable-background:new 0 0 20 20;" xml:space="preserve">
<g id="setting_2_">
	<path d="M19.4,12.2l-1.8-1.4c0.1-0.5,0.1-1,0-1.5l1.8-1.4c0.3-0.3,0.4-0.8,0.2-1.1l-1.9-3.3C17.5,3,17,2.8,16.6,3l-2.2,0.9
		c-0.4-0.3-0.8-0.5-1.3-0.8l-0.3-2.3C12.7,0.3,12.3,0,11.9,0H8.1C7.6,0,7.2,0.3,7.2,0.8L6.8,3.1C6.4,3.3,6,3.6,5.5,3.8L3.4,3
		C3,2.8,2.5,3,2.3,3.4L0.4,6.7C0.1,7.1,0.2,7.6,0.6,7.8l1.8,1.4c-0.1,0.5-0.1,1,0,1.5l-1.8,1.4c-0.3,0.3-0.4,0.8-0.2,1.1l1.9,3.3
		c0.2,0.4,0.7,0.6,1.1,0.4l2.2-0.9C6,16.5,6.4,16.7,6.8,17l0.3,2.3C7.2,19.7,7.6,20,8.1,20h3.8c0.4,0,0.8-0.3,0.9-0.8l0.3-2.3
		c0.5-0.2,0.9-0.5,1.3-0.8l2.2,0.9c0.4,0.2,0.9,0,1.1-0.4l1.9-3.3C19.8,13,19.7,12.5,19.4,12.2z M10,14.2c-2.3,0-4.2-1.9-4.2-4.2
		S7.7,5.9,10,5.9s4.2,1.9,4.2,4.2C14.1,12.3,12.3,14.2,10,14.2z"/>
</g>
</svg>
